<?xml version="1.0" encoding="utf-8"?>
<svg version="1.1" xmlns:cc="http://creativecommons.org/ns#" xmlns:dc="http://purl.org/dc/elements/1.1/" xmlns:rdf="http://www.w3.org/1999/02/22-rdf-syntax-ns#" xmlns="http://www.w3.org/2000/svg" xmlns:xlink="http://www.w3.org/1999/xlink" x="0px" y="0px" viewBox="0 0 1024 768" xml:space="preserve">
<path fill="#65605a" d="m351.25 347.45c-7.1042 0-13.488 1.6475-19.15 4.7363-5.6628 3.1917-10.09 7.5163-13.385 13.076-3.2947 5.5598-4.8398 11.84-4.8398 18.738 0 7.0013 1.5451 13.178 4.8398 18.738 3.2947 5.5598 7.722 9.9874 13.385 13.076 5.6628 3.1918 12.046 4.7363 19.15 4.7363 5.148 0 9.8833-0.8239 14.311-2.5742 4.4273-1.6474 8.2374-4.2209 11.326-7.5156l-3.2949-3.3984c-5.8687 5.7657-13.282 8.6484-22.137 8.6484-6.0746 0-11.531-1.3373-16.473-4.1172-4.9421-2.677-8.8548-6.4871-11.635-11.326-2.8829-4.8391-4.2207-10.296-4.2207-16.268 0-5.9717 1.3378-11.325 4.2207-16.164 2.7799-4.8391 6.6927-8.6498 11.635-11.43 4.9421-2.677 10.398-4.1172 16.473-4.1172 8.9575 0 16.371 2.8821 22.137 8.5449l3.2949-3.3984c-3.0888-3.2947-6.8984-5.7648-11.223-7.4121-4.4273-1.6474-9.2661-2.5742-14.414-2.5742zm240 0c-5.7657 0-10.501 0.92686-14.311 2.5742-3.8095 1.7503-6.5901 4.1191-8.4434 7.002s-2.7793 6.0736-2.7793 9.5742c0 4.3243 1.0298 7.8244 3.2949 10.398 2.2651 2.574 4.9411 4.4285 8.1328 5.6641 3.1918 1.2355 7.4137 2.5731 12.768 3.8086 4.6332 1.1326 8.3392 2.1618 11.119 3.1914 2.677 1.0296 5.0452 2.5745 6.8984 4.4277 1.8533 1.9562 2.7793 4.5309 2.7793 7.7227 0 4.2214-1.7494 7.6194-5.25 10.193-3.5006 2.677-8.7515 3.9121-15.547 3.9121-4.7361 0-9.2675-0.82336-13.592-2.4707-4.3243-1.6474-7.7204-3.9129-10.191-6.5898l-2.3691 3.9121c2.677 2.8829 6.383 5.2502 11.119 7.1035 4.7361 1.8533 9.7828 2.6777 15.137 2.6777 5.6628 0 10.502-0.8239 14.414-2.5742 3.9125-1.6474 6.7952-4.0156 8.6484-6.8984 1.8533-2.8829 2.8828-6.0736 2.8828-9.5742 0-4.2214-1.1333-7.6188-3.3984-10.09-2.2651-2.471-4.9424-4.4285-8.0312-5.6641-3.1917-1.2355-7.4131-2.4701-12.664-3.8086-4.7361-1.1326-8.5457-2.2653-11.223-3.2949-2.7799-1.0296-5.0432-2.4715-6.8965-4.4277-1.8533-1.8533-2.7812-4.4279-2.7812-7.7227 0-4.2213 1.6478-7.7215 5.1484-10.398 3.3977-2.677 8.4424-4.0156 15.135-4.0156 3.2947 0 6.6927 0.51532 10.193 1.5449 3.5006 1.0296 6.6933 2.5731 9.5762 4.5293l1.9551-4.2207c-2.8829-1.9562-6.1768-3.5008-9.9863-4.7363-3.9125-1.1326-7.8258-1.75-11.738-1.75zm91.342 0c-5.7657 0-10.503 0.92686-14.312 2.5742-3.8095 1.7503-6.5881 4.1191-8.4414 7.002s-2.7812 6.0736-2.7812 9.5742c0 4.3243 1.0298 7.8244 3.2949 10.398 2.2651 2.574 4.943 4.4285 8.1348 5.6641 3.1918 1.2355 7.4137 2.5731 12.768 3.8086 4.6332 1.1326 8.3392 2.1618 11.119 3.1914 2.677 1.0296 5.0452 2.5745 6.8984 4.4277 1.8533 1.9562 2.7793 4.5309 2.7793 7.7227 0 4.2214-1.7494 7.6194-5.25 10.193-3.5006 2.677-8.7515 3.9121-15.547 3.9121-4.7362 0-9.2675-0.82336-13.592-2.4707-4.3243-1.6474-7.7223-3.9129-10.193-6.5898l-2.3672 3.9121c2.6769 2.8829 6.383 5.2502 11.119 7.1035 4.7361 1.8533 9.7809 2.6777 15.135 2.6777 5.6628 0 10.502-0.8239 14.414-2.5742 3.9125-1.6474 6.7971-4.0156 8.6504-6.8984 1.8533-2.8829 2.8828-6.0736 2.8828-9.5742 0-4.2214-1.1333-7.6188-3.3984-10.09-2.2651-2.471-4.9424-4.4285-8.0312-5.6641-3.1918-1.2355-7.4131-2.4701-12.664-3.8086-4.7362-1.1326-8.5457-2.2653-11.223-3.2949-2.7799-1.0296-5.0452-2.4715-6.8984-4.4277-1.8533-1.8533-2.7793-4.4279-2.7793-7.7227 0-4.2213 1.6478-7.7215 5.1484-10.398 3.3977-2.677 8.4424-4.0156 15.135-4.0156 3.2947 0 6.6927 0.51532 10.193 1.5449 3.5006 1.0296 6.6913 2.5731 9.5742 4.5293l1.957-4.2207c-2.8829-1.9562-6.1788-3.5008-9.9883-4.7363-3.9125-1.1326-7.8238-1.75-11.736-1.75zm-458.99 0.51562v4.7344h46.643v-4.7344zm199.58 0v72.07h46.742v-4.7344h-41.492v-67.336zm88.928 0v72.07h5.25v-72.07zm241.65 0v4.7344h46.643v-4.7344zm-530.16 33.15v4.63h46.643v-4.6328zm530.15 0v4.63h46.643v-4.6328zm-530.15 34.184v4.7344h46.643v-4.7344zm530.15 0v4.7344h46.643v-4.7344z" />
</svg>