<?xml version="1.0" encoding="utf-8"?>
<svg version="1.1" xmlns:cc="http://creativecommons.org/ns#" xmlns:dc="http://purl.org/dc/elements/1.1/" xmlns:rdf="http://www.w3.org/1999/02/22-rdf-syntax-ns#" xmlns="http://www.w3.org/2000/svg" xmlns:xlink="http://www.w3.org/1999/xlink" x="0px" y="0px" viewBox="0 0 1024 768" xml:space="preserve">

 
 <g id="logo-group" stroke-width="0" stroke-miterlimit="2" transform="translate(2.8422e-14 -5e-7) scale(1)">
  <path id="path577431" style="font-variant-ligatures:none" d="m270.25 381.12h-46.641v4.6332h46.641zm0-33.153h-46.641v4.7362h46.641zm-46.641 67.336v4.7362h46.641v-4.7362z" fill="#37312c"/>
  <path id="path577433" style="font-variant-ligatures:none" d="m332.1 415.81c5.6628 3.1918 12.046 4.7362 19.151 4.7362 5.148 0 9.8842-0.82368 14.311-2.574 4.4273-1.6474 8.2368-4.2214 11.326-7.5161l-3.2947-3.3977c-5.8687 5.7658-13.282 8.6486-22.136 8.6486-6.0746 0-11.532-1.3385-16.474-4.1184-4.9421-2.677-8.8546-6.4865-11.634-11.326-2.8829-4.8391-4.2214-10.296-4.2214-16.268 0-5.9717 1.3385-11.326 4.2214-16.165 2.7799-4.8391 6.6924-8.6486 11.634-11.429 4.9421-2.677 10.399-4.1184 16.474-4.1184 8.9575 0 16.371 2.8829 22.136 8.5457l3.2947-3.3977c-3.0888-3.2947-6.8983-5.7658-11.223-7.4131-4.4273-1.6474-9.2664-2.574-14.414-2.574-7.1042 0-13.488 1.6474-19.151 4.7362-5.6628 3.1918-10.09 7.5161-13.385 13.076-3.2947 5.5598-4.8391 11.84-4.8391 18.739 0 7.0013 1.5444 13.179 4.8391 18.739 3.2947 5.5598 7.722 9.9871 13.385 13.076z" fill="#4e4843"/>
  <path id="path577435" style="font-variant-ligatures:none" d="m423.18 347.96v72.072h46.744v-4.7362h-41.49v-67.33z" fill="#65605a"/>
  <path id="path577437" style="font-variant-ligatures:none" d="m512.11 347.96v72.072h5.251v-72.072z" fill="#7c7771"/>
  <path id="path577439" style="font-variant-ligatures:none" d="m574.88 417.87c4.7362 1.8533 9.7812 2.677 15.135 2.677 5.6628 0 10.502-0.82368 14.414-2.574 3.9125-1.6474 6.7954-4.0154 8.6486-6.8983 1.8533-2.8829 2.8829-6.0746 2.8829-9.5753 0-4.2214-1.1326-7.619-3.3977-10.09s-4.9421-4.4273-8.0309-5.6628c-3.1918-1.2355-7.4131-2.471-12.664-3.8095-4.7362-1.1326-8.5457-2.2651-11.223-3.2947-2.7799-1.0296-5.045-2.471-6.8983-4.4273-1.8533-1.8533-2.7799-4.4273-2.7799-7.722 0-4.2214 1.6474-7.722 5.148-10.399 3.3977-2.677 8.4427-4.0154 15.135-4.0154 3.2947 0 6.6924 0.5148 10.193 1.5444s6.6924 2.574 9.5753 4.5302l1.9562-4.2214c-2.8829-1.9562-6.1776-3.5006-9.9871-4.7362-3.9125-1.1326-7.825-1.7503-11.737-1.7503-5.7658 0-10.502 0.92664-14.311 2.574-3.8095 1.7503-6.5894 4.1184-8.4427 7.0013s-2.7799 6.0746-2.7799 9.5753c0 4.3243 1.0296 7.825 3.2947 10.399s4.9421 4.4273 8.1338 5.6628c3.1918 1.2355 7.4131 2.574 12.767 3.8095 4.6332 1.1326 8.3398 2.1622 11.12 3.1918 2.677 1.0296 5.045 2.574 6.8983 4.4273 1.8533 1.9562 2.7799 4.5302 2.7799 7.722 0 4.2214-1.7503 7.619-5.251 10.193-3.5006 2.677-8.7516 3.9125-15.547 3.9125-4.7362 0-9.2664-0.82368-13.591-2.471-4.3243-1.6474-7.722-3.9125-10.193-6.5894l-2.3681 3.9125c2.677 2.8829 6.3835 5.251 11.12 7.1042z" fill="#938e87"/>
  <path id="path577441" style="font-variant-ligatures:none" d="m666.22 417.87c4.7362 1.8533 9.7812 2.677 15.135 2.677 5.6628 0 10.502-0.82368 14.414-2.574 3.9125-1.6474 6.7954-4.0154 8.6486-6.8983 1.8533-2.8829 2.8829-6.0746 2.8829-9.5753 0-4.2214-1.1326-7.619-3.3977-10.09s-4.9421-4.4273-8.0309-5.6628c-3.1918-1.2355-7.4131-2.471-12.664-3.8095-4.7362-1.1326-8.5457-2.2651-11.223-3.2947-2.7799-1.0296-5.045-2.471-6.8983-4.4273-1.8533-1.8533-2.7799-4.4273-2.7799-7.722 0-4.2214 1.6474-7.722 5.148-10.399 3.3977-2.677 8.4427-4.0154 15.135-4.0154 3.2947 0 6.6924 0.5148 10.193 1.5444s6.6924 2.574 9.5753 4.5302l1.9562-4.2214c-2.8829-1.9562-6.1776-3.5006-9.9871-4.7362-3.9125-1.1326-7.825-1.7503-11.737-1.7503-5.7658 0-10.502 0.92664-14.311 2.574-3.8095 1.7503-6.5894 4.1184-8.4427 7.0013s-2.7799 6.0746-2.7799 9.5753c0 4.3243 1.0296 7.825 3.2947 10.399s4.9421 4.4273 8.1338 5.6628c3.1918 1.2355 7.4131 2.574 12.767 3.8095 4.6332 1.1326 8.3398 2.1622 11.12 3.1918 2.677 1.0296 5.045 2.574 6.8983 4.4273 1.8533 1.9562 2.7799 4.5302 2.7799 7.722 0 4.2214-1.7503 7.619-5.251 10.193-3.5006 2.677-8.7516 3.9125-15.547 3.9125-4.7362 0-9.2664-0.82368-13.591-2.471-4.3243-1.6474-7.722-3.9125-10.193-6.5894l-2.3681 3.9125c2.677 2.8829 6.3835 5.251 11.12 7.1042z" fill="#aaa69e"/>
  <path id="path577443" style="font-variant-ligatures:none" d="m800.4 381.12h-46.641v4.6332h46.641zm0-33.153h-46.641v4.7362h46.641zm-46.641 67.336v4.7362h46.641v-4.7362z" fill="#c1bdb5"/>
 </g>

</svg>